Coordinates
version=1
nRows=9
nColumns=38
inDegrees=yes

Units are S.I. units (second, meters, Newtons, ...)
Angles are in degrees.

endheader
time	pelvis_tilt	pelvis_list	pelvis_rotation	pelvis_tx	pelvis_ty	pelvis_tz	hip_flexion_r	hip_adduction_r	hip_rotation_r	knee_angle_r	ankle_angle_r	subtalar_angle_r	mtp_angle_r	hip_flexion_l	hip_adduction_l	hip_rotation_l	knee_angle_l	ankle_angle_l	subtalar_angle_l	mtp_angle_l	lumbar_extension	lumbar_bending	lumbar_rotation	arm_flex_r	arm_add_r	arm_rot_r	elbow_flex_r	pro_sup_r	wrist_flex_r	wrist_dev_r	arm_flex_l	arm_add_l	arm_rot_l	elbow_flex_l	pro_sup_l	wrist_flex_l	wrist_dev_l
      1.13000000	      1.03174516	      3.07135249	      3.87810752	     -0.04619005	      0.84855621	      2.57829061	     28.46469915	     -5.24320589	    -11.93552040	     -7.61061349	      0.97065066	      0.00000000	      0.00000000	    -23.99189187	      1.76690372	      2.78442187	     -6.76504285	     -5.08985323	      0.00000000	      0.00000000	     -6.22957792	     -4.41703408	     -7.81130273	     -8.24486947	    -13.15900161	     -0.55545066	      7.54101301	     98.14532926	      0.00000000	      0.00000000	     20.58836108	    -11.99982291	     19.17275006	    156.63176851	     70.89964128	      0.00000000	      0.00000000
      1.14000000	      1.13438279	      2.64833000	      4.49061216	     -0.04206053	      0.84676425	      2.58001819	     27.31621363	     -4.67153006	    -11.66741161	     -9.22386917	     -0.01370140	      0.00000000	      0.00000000	    -24.42615499	      0.77540766	      3.14046259	     -8.06159629	     -7.00418386	      0.00000000	      0.00000000	     -6.03787441	     -3.95175654	     -8.55410643	     -8.39329764	    -13.26217994	     -1.05637375	      6.77961199	     98.29368271	      0.00000000	      0.00000000	     19.91273233	    -12.24239914	     18.53844334	    156.93905348	     70.92079105	      0.00000000	      0.00000000
      1.15000000	      1.19794720	      2.19484360	      5.04798847	     -0.03870984	      0.84484480	      2.58152362	     26.45306718	     -4.03795691	    -11.51038667	    -10.51221423	     -1.38720047	      0.00000000	      0.00000000	    -24.62975311	     -0.21932534	      3.41847380	     -9.63540736	     -9.22647309	      0.00000000	      0.00000000	     -5.79624825	     -3.43556079	     -9.18242913	     -8.48258212	    -13.36071196	     -1.57047178	      5.99792162	     98.49864348	      0.00000000	      0.00000000	     19.15072256	    -12.46313585	     17.83469040	    157.23260245	     70.94297127	      0.00000000	      0.00000000
      1.16000000	      1.22856619	      1.67954779	      5.49020975	     -0.03564084	      0.84319711	      2.58302370	     25.97313013	     -3.36743640	    -11.43428777	    -11.49948788	     -3.10587699	      0.00000000	      0.00000000	    -24.46691030	     -1.21089629	      3.58698886	    -11.62637327	    -11.82076139	      0.00000000	      0.00000000	     -5.48811261	     -2.85199899	     -9.63682719	     -8.48220524	    -13.44803281	     -2.08421097	      5.22094400	     98.78008702	      0.00000000	      0.00000000	     18.31577720	    -12.64403478	     17.06585751	    157.48681346	     70.95706272	      0.00000000	      0.00000000
      1.17000000	      1.19778557	      1.07720769	      5.75609139	     -0.03259015	      0.84208664	      2.58470750	     25.88873314	     -2.67616941	    -11.35767502	    -12.36020572	     -4.99173397	      0.00000000	      0.00000000	    -23.78957806	     -2.19207952	      3.62009640	    -14.19278140	    -14.82135137	      0.00000000	      0.00000000	     -5.10664550	     -2.18746494	     -9.86293459	     -8.35700878	    -13.52016174	     -2.57673257	      4.48798131	     99.15572349	      0.00000000	      0.00000000	     17.44772366	    -12.76524974	     16.25080644	    157.66683332	     70.94755790	      0.00000000	      0.00000000
      1.18000000	      1.03516350	      0.39258490	      5.82798968	     -0.03011005	      0.84137695	      2.58656977	     26.07899668	     -1.93207453	    -11.15718042	    -13.40466663	     -6.72743761	      0.00000000	      0.00000000	    -22.49939281	     -3.15182418	      3.50978208	    -17.45351097	    -18.19417194	      0.00000000	      0.00000000	     -4.67680347	     -1.44105365	     -9.83644981	     -8.07696034	    -13.58210495	     -3.02181342	      3.84500483	     99.63386983	      0.00000000	      0.00000000	     16.61077719	    -12.81229877	     15.42104536	    157.73701965	     70.89387152	      0.00000000	      0.00000000
      1.19000000	      0.74180976	     -0.35951929	      5.75081910	     -0.02869731	      0.84095289	      2.58850299	     26.41573747	     -1.07382117	    -10.71049481	    -14.88020950	     -7.94487076	      0.00000000	      0.00000000	    -20.60417956	     -4.08406992	      3.27051368	    -21.43881563	    -21.81343852	      0.00000000	      0.00000000	     -4.26409129	     -0.62204332	     -9.57205566	     -7.63350464	    -13.64370341	     -3.38856333	      3.32992434	    100.21162260	      0.00000000	      0.00000000	     15.87393412	    -12.78100436	     14.61120800	    157.67202464	     70.77412161	      0.00000000	      0.00000000
      1.20000000	      0.43996244	     -1.18186432	      5.59743470	     -0.02810179	      0.84082484	      2.59033322	     26.84047733	     -0.05743201	     -9.95287423	    -16.80010511	     -8.36264508	      0.00000000	      0.00000000	    -18.22967452	     -5.00942314	      2.93922675	    -26.05875513	    -25.44952133	      0.00000000	      0.00000000	     -3.95335954	      0.26340065	     -9.11392508	     -7.04893552	    -13.70794479	     -3.64234424	      2.96046503	    100.87575923	      0.00000000	      0.00000000	     15.28495643	    -12.68011614	     13.84814611	    157.46638337	     70.57066813	      0.00000000	      0.00000000
      1.21000000	      0.25251980	     -2.08627798	      5.41757123	     -0.02795444	      0.84089348	      2.59200031	     27.26517385	      1.13308526	     -8.91629421	    -18.97022266	     -7.89836720	      0.00000000	      0.00000000	    -15.56689258	     -5.97939043	      2.56809736	    -31.10529927	    -28.76933674	      0.00000000	      0.00000000	     -3.80977841	      1.21477216	     -8.51118443	     -6.35887316	    -13.76721157	     -3.74872720	      2.73644687	    101.60312904	      0.00000000	      0.00000000	     14.85337773	    -12.53090736	     13.14249608	    157.13752697	     70.27578573	      0.00000000	      0.00000000
